# xmcd CD database file
#
# Track frame offsets:
#	150
#	29565
#	57597
#	79107
#	103860
#	121027
#	139532
#	163365
#	168615
#	199780
#
# Disc length: 3383 seconds
#
# Revision: 6
# Processed by: cddbd v1.5.1PL0 Copyright (c) Steve Scherf et al.
# Submitted via: CDex 1.51
#
DISCID=8d0d350a
DTITLE=ROSSO - BIRD
DYEAR=2002
DGENRE=Rock
TTITLE0=惑星にエスカレーター
TTITLE1=シャロン
TTITLE2=ミッドナイト・コンドル
TTITLE3=JERRY LOVE
TTITLE4=I "love" PUNK
TTITLE5=カリプソ・ベイビー
TTITLE6=モーター・プール
TTITLE7=グラスホッパーはノーヘル
TTITLE8=星のメロディー
TTITLE9=モンキー・ラブ・シック
EXTD=YEAR: 2002
EXTT0=
EXTT1=
EXTT2=
EXTT3=
EXTT4=
EXTT5=
EXTT6=
EXTT7=
EXTT8=
EXTT9=
PLAYORDER=
